<svg xmlns="http://www.w3.org/2000/svg" width="30" height="42" version="1.0" viewBox="0 0 915 1280" fill="#5f5"><path d="M422.5 1c-67 3.9-130.1 22.5-182.5 54-58.2 34.9-104.1 83.6-144.2 152.9-48 83-78.5 188-90.2 310.6-3.9 40.1-5 66.6-5 118.5-.1 50.7.4 63.5 4 103.5 12 134.6 50.2 251.4 114.2 349 73.8 112.7 167.9 173.8 289.7 188.1 20.9 2.5 72.5 2.5 94.5.1 98.4-11 176.8-48.7 242.6-116.9 73.2-76 126-185.9 150.9-313.8 20.6-106.4 24.2-239.1 9.4-354.5-18.3-143.4-65.9-263.6-139-351C682 40.2 565.9-7.1 422.5 1zm60.8 301.4c4.9 1.4 11.2 3.8 14 5.3 34.4 17.3 59.4 58.3 75.6 123.8 16 64.7 22.3 143.3 20.1 252-2.5 122.1-12.6 184.5-37.4 232-18.3 35.2-39.8 54-71.4 62.7-10.9 3-41.1 3.2-52.2.4-32-8.2-54.1-28.3-72.5-66.1-19.8-40.6-30.6-93.7-35.5-175-2.9-47.6-2.9-144.2 0-190.5 5.2-83 16.4-140.8 35-179.7 18.4-38.5 41.5-59 75-66.4 13-2.9 37.2-2.2 49.3 1.5z"/></svg>